<?xml version="1.0" encoding="UTF-8"?>
<svg id="Ebene_1" data-name="Ebene 1" xmlns="http://www.w3.org/2000/svg" xmlns:xlink="http://www.w3.org/1999/xlink" viewBox="0 0 592.44 252.28">
  <defs>
    <style>
      .cls-1 {
        fill: none;
      }

      .cls-2 {
        fill: #1d1d1b;
      }

      .cls-3 {
        fill: #fff;
      }

      .cls-4 {
        clip-path: url(#clippath);
      }
    </style>
    <clipPath id="clippath">
      <rect class="cls-1" width="592.44" height="252.28"/>
    </clipPath>
  </defs>
  <g class="cls-4">
    <path class="cls-2" d="M408.66,161.47c-3.54.72-4.63,3.12-5.17,5.48-.75,3.3-2.49,11.28-3.63,16.78-1.68-3.17-6.38-7.38-14.06-7.38-3.71,0-6.91.72-9.66,1.83,0-.01,0-.03,0-.04,0-5.58-3.67-9.33-7.52-10.79-1.71-4.86-6.48-7.59-10.3-7.63-8.62-.09-11.83,7.08-11.83,11.36,0,3.44,1.25,5.44,2.05,6.6h-3.97c-1.38,0-3.72.53-5,2.72-2.13-2.42-5.38-4.04-9.49-4.04s-7.48,1.21-9.49,2.57c-.73-1.51-2.47-2.34-3.84-2.54-.56-2.79-3.11-4.38-6.18-5.62-.19-.08-.38-.15-.57-.22-.04-3.49-2.84-5.33-6.29-6.72-4.75-1.91-10.71-2.42-12.4-2.42-13.04,0-24.78,7.36-24.78,22.09,0,8.55,4.54,13.19,9.14,16.16,1.85,3.27,4.59,5.52,7.3,7.22.33.21.65.4.96.59-.51,1.44-2.2,1.72-4.03,1.72-2.48,0-4.34-.8-6.73-1.75-2.02-.8-3.26-1.57-4.83-1.57-2.33,0-4.1,1.58-4.89,3.03-1.04,1.91-1.77,3.37-3.16,6.03-.17.33-.32.6-.45.84,0-.16.02-.33.02-.49,0-3.67-1.17-7.36-4.26-10.22-1.03-.95-2.38-1.8-3.76-2.54-.1-.22-.19-.44-.3-.65.84.32,1.8.6,2.87.6,1.31,0,3.88-.69,5.09-3.58.88-2.12,1.36-3.68,1.92-5.29.24-.7.62-2.68-.37-4.5-1.22-2.26-3.7-3.65-6.24-4.5-.03-.76-.19-1.61-.63-2.43-2.95-5.48-13.3-5.85-13.87-5.85-7.09,0-11.17,2.23-13.95,4.45-.45-1.82-2.17-4.38-5.74-4.38-.79,0-1.84.2-2.63.37-2.13.45-3.84.8-5.87,1.21-4.14.83-4.86,3.52-5.28,5.37-.21.01-.42.03-.61.05.07-.42.09-.72.09-1.22,0-3.51-2.62-5.8-5.95-5.8-.85,0-1.47.17-2.2.32-2.54.54-3.88.82-6.17,1.27-2.55.5-4.47,1.55-5.3,5.11-1.19-4.33-8.12-6.76-15.36-6.76-3.09,0-9.26.99-13.78,5.38-.96-2.31-2.83-4.03-5.93-4.03h-5.61c-1.09,0-1.85.03-3.06.69-1.17-.69-3.85-2.01-7.48-2.01-4.37,0-9.3,1.51-14.1,6.44-.29-.71-1.01-1.87-2.49-2.69-1.64-.91-3.34-1.83-5.54-3-1.29-.68-4.05-1.81-7.79,1.58-1.83-1.19-4.79-2.36-8.14-2.36-2.65,0-10.25.44-16.47,8.89-.13-.07-.25-.14-.39-.21-1.83-4.15-6.7-8.68-14.92-8.68-3.59,0-6.63.71-9.19,1.72-1.29-2.35-3.34-4.51-6.44-6.04-2.26-4.89-7.44-9.23-18.34-9.23-7.4,0-11.29-.02-12.28-.02-5.04,0-6.42,2.98-6.94,5.43-1.23,5.74-8.28,39.01-10.61,49.97-1.26,5.94,2.8,8.02,5.89,8.02.28,0,.54,0,.8,0-.57,5.1,3.17,6.93,6.06,6.93,3.32,0,5.05-.02,7.63-.02,3.66,0,5.65-2.6,6.19-5.15,1.04-4.9,2.74-12.9,3.43-16.2,1.58,0,3.94-.12,6.66-.66.38,3.28,1.49,6.65,2.92,8.84,1.5,2.29,3.54,4.14,6.04,5.45.26.53.54,1.04.83,1.48,3.08,4.69,8.37,7.6,15.47,7.6,2.28,0,4.31-.23,6.17-.57,0,.05,0,.09,0,.14,0,.67.3,1.56.69,2.36.64,1.3,1.81,2.56,4.27,3.61.63.27,1.27.51,1.92.73,0,.08-.01.16-.01.24,0,.67.3,1.56.69,2.35.64,1.3,1.81,2.56,4.27,3.61,5.25,2.23,11.37,2.79,14.23,2.79,3.67,0,11.13-.62,16.33-5.82,5.64-5.64,6.77-13.24,7.5-17.6.2.09.41.16.61.25,2.22,4.92,6.35,7.95,12.11,7.95,2.75,0,6.52-.95,9.06-2.66.87,1.57,2.94,2.66,4.74,2.66s2.52-.56,9.05-3.04c.77-.29,1.04-.45,1.38-.69,1.68,1.12,7.89,3.73,15.16,3.73s13.21-3.03,16.35-7.27c1.32,3.22,5.2,7.27,11.4,7.27,3.62,0,6.7-1,9.8-3,.67,1.42,2.85,3,4.87,3,1.04,0,2.45-.54,2.67-.63,1.82-.73,3.44-1.32,6.2-2.42.69-.28,1.04-.41,1.38-.69.8.69,7.2,3.71,14.58,3.71,11.4,0,18.38-6.12,20.19-14.59.5,1.68,2.04,3.42,5.08,4.68.35.15.9.36,1.59.61,0,.13,0,.25,0,.39,0,2.03,1.48,4.36,5.28,5.93,1.72.71,7.79,3.01,14.79,3.01,1.97,0,5.16-.33,8.56-1.35-.22,1.02-.42,1.99-.59,2.84-.61,3.01,1.14,6.76,5.27,6.76.58,0,1.03-.07,1.67-.21-.03.12-.05.26-.08.38-.61,3.01,1.14,6.76,5.27,6.76.65,0,1.14-.09,1.93-.26,2.89-.62,3.52-.82,6.09-1.26,3.65-.62,5.46-1.92,6.29-5.66.87-3.92,1.05-4.92,1.79-8.32,5.67,1.13,12.2-.88,16.62-4.9,1.12-1.02,2.16-2.17,3.12-3.39.54.17,1.11.3,1.73.3h1.35s-.01.07-.02.11c-.63,3.07,1.62,6.83,5.54,6.83h8.19c.7,0,4.35-.45,5.24-4.37.37-1.65.72-3.25,1.07-4.84.69.52,1.44.99,2.25,1.41,2.62,5.19,7.99,9.12,16.78,9.12,6.54,0,14.56-2.72,17.83-5.62,2.04,4.16,6.53,5.66,11.1,5.66,3.1,0,8.66-.98,10.8-2.92.83-.76,1.2-1.26,1.5-1.79,2.79,2.73,7.7,4.71,12.6,4.71,5.43,0,10.17-1.26,12.85-2.41,3.62-1.55,5.68-2.61,7.08-4.85.44-.71.68-2.08.68-2.65,0-1.07-.34-1.75-.74-2.72-.41-.97-.97-2.33-1.84-4.63-.54-1.41-1.96-2.71-2.26-2.78,5.85-3.08,9.67-8.74,9.67-15.76,0-5.57-2.62-10.97-8.28-13.65-2.19-4.85-7-8.53-14.86-8.68-4.5-.09-8.38,1.08-11.62,2.81.29-1.32.58-2.65.89-4.03.29-1.33.39-1.84.39-3.14s-1-5.27-5.34-5.27c-.46,0-1.09.08-1.66.18.09-.56.13-1.07.13-1.85,0-1.29-1-5.27-5.34-5.27-.51,0-1.26.1-1.87.22-2.24.43-3.54.73-7.25,1.49M590.81,106.35c0-51.61-27.05-93.3-47.88-93.99-4.52-.15-5.18,1.79-6.29,7.69-.81,4.29-.99,4.94-2.01,8.48-3.14-4.69-10.02-13.34-18.85-13.2-9.87.16-.54,39.58-22.12,43.45,2.14-25.86-2.33-40.33-11.4-42.78,1.29-6.52-2.67-12.76-5.77-13.39-1.68,1.13-.32,1.63-1.41,2.72-2.63,3.52-2.29,7.6-2.56,7.94-4.4-.02-5.35.18-7.76.5-3.34-5.06-4.63-10.02-5.01-10.07-4.33-.48-7.24,6.5-6.19,13.66-2.65,1.93-9.58,9.52-10.73,11.57-1.24,4.17,1.95,3.81-3.66,11.1-1.3,1.69-3.57,3.98-5.05,5.52-1.71,1.18-2.55,1.6-3.47,3.01-.86,1.32-.84,3.68-.43,5.39.5,2.09,1.42,4.82,3.14,6.39,3.61,3.29,9.46,3.19,12.44-1.46,3.33-2.29,5.52-2.46,7.09-4.04,0,9.89-16.3,18.32-20.07,30.13-1.52,4.77-1.8,11.19-1.03,16.2-.63,1.03-6.08,3.16-12,5.04-5.04,1.6-8.73,1.44-11.45,3.73-2.28,1.92-1.61,5.87-.84,8.45,2.79,4.01,5.26,17.86,10.35,19.64,1.92,7.91,3.86,10.38,6.71,10.38,4.13-.12,6.95,1.8,9.41,1.81,1.38,0,5.19-1.16,6.21-2.35,1.89-2.35-2.11-6.99-3.99-10.27-.71-1.24-4.12-1.15-4.46-1.05-1.12-2.39-1.08-7.24-.25-9.59.66-1.96,7.93-2.4,10.64-1.01,13.61,20.21,44.19,17.16,52.36,27.37-5.04,5.17-4.47,8.27,3.51,34.4,0,4.08-6.3,8.55-14.36,16.83-8.05,8.28-5.51,7.23-7.55,8.72-2.04,1.5-4.52,5.69-4.64,10.52,1.55,1.6,8.94,1.85,16.77-.84,1.94-.83.27-3.12.95-4.67,1.78-1.98.98-5.04,1.78-6.12,1.82-2.47,2.64-2.51,5.24-4.89,4.9-4.48,10.89-8.23,11.77-9.22,1.28-1.51,1.13-2.83,1.36-4.2.9,1.69,1.52,2.16,1.98,7.6-1.37,7.79-8,17.38-11.3,20.11-6.37,4.56-8.63,10.41-8.56,13.96.83,1.71,6.12,2.56,18.36-1.47,1.96-.73.88-5.01,2.52-4.45,4.51-10.81,10.04-20.71,14.7-25.55,1.22-9.34-5.04-16.64-1.11-24.62,12.57-3.52,19.92-16.77,21.9-23.08,1.67.57,1.96,2.43,1.13,4.65-2.65,7.08-4.97,9.49-4.97,16.32,0,11.49,5.51,15.39,5.51,24.25,0,7.3-2.26,8.02-2.96,8.02-3.37,0-3.5-3.13-3.65-2.84-1.26,2.39-.06,5.74,1.93,7.8,1.53,1.59,8.22,4.77,15.41-2.27,3.56-3.48,5.03-8.86,5.03-14.96,0-4.52-3.85-11.28-3.85-16.12,0-8.97,6.96-18.41,3.14-27.35-2.25-5.26-6.65-9.03-13.98-6.97,1.03-15.57-8.1-24.33-12.48-27.58,5.03,1.27,11.9,9.43,20.88,4.96.32-.16.67-.44.83-.68,3.43,2.44,5.6,5.05,6.94,7.44.8,1.43,1.02,2.82,1.29,3.94.06.27.35.96.45.42-.09.52,2.94-8.48.44-15.14,2.7,6.5,2.99,13.08,2.08,17.79-.11.55,0,.46.32.21,3.24-2.37,4.95-17.23,3.09-25.82.26-.09.88-.39.87-.39.27.71.6,1.8.85,3.33,3.4,20.61-2.81,48.7-9,54.1-2.28,1.98-1.76,3.24.99,1.89,11.5-5.82,22.74-32.37,22.74-65.04"/>
    <path class="cls-3" d="M575.23,112.07c.17.56.38,1,.68,2.33,2.09-.27,3.5-3.65,3.5-10.92,0-15.85-3.68-32.65-15.6-47.27-6.4-7.85-12.62-9.41-15.03-14.21-.44-.87-1.06-2-1.32-3.45-.27-1.51-1.11-2.06-.73.38,1.48,9.42,9.43,11.41,16.26,20.35,5.66,7.4,11.55,19.98,13.05,31.4,2.24,17.03.62,20.43-.82,21.38M572.85,104.99c.14.74,1.18.69,1.06-.07-1.78-11.5-9.25-23.43-20.25-29.81-6.73-3.9-13.6-8.42-14.22-16.2-.18-2.25-.74-1.82-.63.09.66,11.98,8.74,15.14,14.97,19.06,10.68,6.71,17.26,17.29,19.08,26.93M568.26,130.64c.14,1.5.2,3.09.17,4.76-.1.54,3.14-9.06.18-15.77-1.51-3.43-3.72-6.83-6.79-9.89-15.34-15.28-32.86-21.61-34.22-34.75-.32-3.07-1.34-1.49-1.15,0,3.58,27.31,39.03,25.46,41.81,55.66M531.88,99.16c-1.25,2.84,10.91,22.5,26.09,24.58.67.09,1.68.03,1.78-.15-.56-.4-1.15-.79-1.78-1.17-9.08-5.56-23.43-15.26-26.09-23.25M544.31,210.46c2.53,7.39,17.96,1.32,17.96-13.95,0-4.65-4.62-10.44-3.48-18.52.92-6.62,3.5-15.65,2.7-20.73-.8-5.08-3.06-9-11.13-8.45.02.6-.15,1.53-.33,2.55,9.09,3.12-2.13,18.37-2.13,26.63,0,8.95,8.63,13.5,8.63,22.36,0,10.62-9.12,13.9-12.23,10.11M429.55,198.49c.92-3.33,3.26-9.32,9.16-9.33,1.87,0,2.74,1.34,2.76,2.99.03,3.05-2.3,4.74-5.06,5.49-2.35.63-5.03.83-6.85.86M417.16,208.01c-.02,4.43,1.11,8.36,3.48,11.07,2.37,2.7,6.22,4.33,10.95,4.31,8.23-.04,13.94-3.42,15.18-4.32.86-.62,1.09-1.37.66-2.22-.8-1.6-1.27-3.17-2.02-5.01-.07-.16-.52-1.12-1.4-1.08-1.75.09-5.55,3.14-9.93,3.13-5.72-.09-5.76-3.56-5.9-6.3,0-.13,0-.26,0-.39,5.66-.04,24.11-.63,24.32-15.61,0-6.68-4.83-11.16-12.4-11.16-12.93,0-22.89,11.85-22.95,27.57M35.62,181.52c-.1,6.43-3.66,8.88-10.49,9h-1.31s2.85-13.56,2.85-13.56h2.6c4.07.15,6.27.59,6.35,4.56M47.46,179.72c.04-5.44-2.18-8.86-5.45-10.68-3.27-1.82-7.46-2.19-11.64-2.2h-11.57c-1.07,0-1.95.5-2.23,1.75-.27,1.25-10.71,50.43-10.71,50.43-.1.4-.18.96-.18,1.35s.11,1.69,2.01,1.69h7.58c1.13,0,1.91-.36,2.23-1.76.33-1.46,4.16-19.66,4.16-19.66h3.38c11.82-.01,22.31-6.29,22.41-20.92M66.8,192.14c.03,3.05-2.3,4.74-5.06,5.49-2.35.63-5.03.83-6.85.86.92-3.33,3.26-9.32,9.16-9.33,1.86,0,2.74,1.34,2.76,2.99M77.85,191.59c0-6.68-4.83-11.16-12.41-11.16-12.93,0-22.89,11.85-22.95,27.57-.02,4.43,1.12,8.36,3.48,11.07,2.37,2.7,6.22,4.33,10.95,4.31,8.23-.04,13.94-3.42,15.18-4.32.86-.62,1.09-1.37.66-2.22-.8-1.6-1.27-3.17-2.02-5.01-.07-.16-.52-1.12-1.4-1.08-1.75.09-5.55,3.14-9.93,3.13-5.72-.09-5.76-3.56-5.9-6.3,0-.13,0-.26,0-.39,5.66-.04,24.11-.63,24.32-15.61M102.98,191.42l-2.64,12.27c-1.25,5.81-4.15,9.71-8.56,9.65-2.37-.03-3.14-1.21-3.14-4.56,0-3.84.9-8.96,2.54-12.91,1.63-3.95,3.99-6.75,6.63-6.73,2.49.02,4.12,1.3,5.17,2.27M115.79,188.97c1-1.9,1.85-2.74,2-3.86.03-.64-.44-1.24-.95-1.5l-4.8-2.61c-.29-.11-.69-.52-1.49-.56-1.88.27-3.41,2.68-4.39,4.13-1.7-1.81-4.22-4.17-9.14-4.13-12.24.14-19.4,15.6-19.44,28.12.01,7.35,3.24,13.48,10.69,13.49,4.69-.01,8.07-2.43,10.16-4.51-.51,2.53-.78,5.03-1.5,7.02-1.06,2.75-2.54,4.5-7.17,4.56-6.1,0-9.46-3.01-11.49-3.2-.63-.05-1.3.48-1.48,1.07l-2.41,5.69c-.03.14-.29.5-.3,1.11.39,1.93,2.47,2.4,5.25,3.38,2.8.83,6.39,1.45,9.74,1.45,20.68-.04,19.05-18.88,21.69-31.47l2.42-11.56c.52-2.53,1.63-4.84,2.63-6.62M141.01,191.45l-2.63,12.25c-1.07,4.81-3.94,10.27-9.03,10.19-1.54-.04-2.35-.94-2.44-3.85,0-3.95.85-9.32,2.49-13.61,1.63-4.29,4.04-7.28,6.66-7.28,2.34,0,3.76,1.29,4.95,2.29M153.54,184.5c.07-.28.17-.65.18-1.11,0-.73-.68-1.62-1.7-1.62h-6.17c-.71-.1-1.52.31-1.89,1.33l-.36.88c-1.47-1.48-4.04-3.55-8.39-3.53-10.72.11-19.34,13.49-19.36,29.21,0,8.33,3.21,13.72,9.52,13.74,5.74,0,9.6-3.39,11.81-5.75.07,1.14.2,2.27.38,3.02.31,1.3.39,2.42,1.88,2.72.62,0,1.24-.29,1.24-.29l6.26-2.42c.24-.12,1.4-.36,1.47-1.64-.02-1.19-.56-2.96-.63-4.73,0-1.05.24-3.72.61-5.33l5.16-24.48ZM182.73,185.78s.23-.7.21-.91c-.2-1.89-2.48-2.84-4.18-3.37-2.15-.67-4.55-1.07-6.9-1.07-9,0-15.66,5.68-15.76,14.68-.06,5.71,2.92,7.6,7.16,9.88,4.23,2.28,7.19,2.61,7.14,5.28-.04,2.32-1.19,4.4-6.11,4.39-4.92,0-8.54-2.74-9.93-2.81-.73-.04-1.2.61-1.33,1.07-.13.46-1.56,4.55-1.65,4.9-.1.35-.2.65-.2,1.13,0,.75.83,1.29,1.6,1.73.81.47,6.36,2.71,11.97,2.7,10.49-.02,16.23-6.18,16.32-14.67.06-5.32-2.37-7.72-6.13-9.72-3.77-2-8.25-2.83-8.17-5.83.05-2.05,1.26-4.01,5.25-4.01,3.17,0,5.81,2.12,7.66,2.26.41.03,1.1-.39,1.38-1l1.67-4.63ZM222.21,183.19c.08-.3.18-.67.18-1.12s-.19-.96-.61-1.28c-.42-.32-1.27-.39-2.2-.2-2.67.55-5.38,1.1-6.88,1.44-1.06.24-1.54.68-1.76,1.65-1.79,8.04-3.35,15.17-3.35,15.17-1.13,5.67-3.96,14.84-10.28,14.66-1.26-.03-1.51-1.08-1.51-2.21,0-1.49.37-3.01.68-4.61l5.55-23.26c.09-.4.18-.97.18-1.36s-.17-.96-.6-1.28c-.43-.32-1.31-.38-1.91-.25-.44.1-6.22,1.28-7.18,1.49-1.06.22-1.52.63-1.76,1.65-2.51,10.75-5.69,24.38-5.69,24.38-.48,1.98-.88,4.13-.88,6.29,0,4.38,2.97,9.06,8.73,9.04,5.65-.02,9.62-3.73,12.19-6.55.1,1.3.22,2.86.42,3.56.45,1.64.43,2.62,1.93,2.98.17.04.55-.07.73-.14l6.6-2.57c.24-.12,1.41-.38,1.47-1.64.07-1.26-.7-2.46-.71-4.84,0-2.39.52-4.24.93-6.24l5.69-24.76ZM250.54,185.78c.12-.34.2-.55.2-.91.01-1.55-2.03-2.7-4.18-3.37-2.15-.67-4.67-1.07-6.9-1.07-8.64,0-15.65,5.31-15.77,14.68-.07,5.74,2.78,7.53,7.16,9.88,5.04,2.71,7.19,2.66,7.14,5.28-.05,2.73-1.53,4.39-6.11,4.39s-8.59-2.77-9.93-2.81c-.72-.02-1.18.61-1.33,1.06-.15.45-1.57,4.61-1.66,4.91-.08.3-.25.85-.2,1.13.16.97.81,1.31,1.6,1.73.7.37,5.78,2.7,11.98,2.7,10.71,0,16.18-6.35,16.31-14.67.09-5.32-2.32-7.75-6.13-9.72-4.17-2.17-8.27-2.87-8.17-5.83.08-2.58,1.87-4.01,5.26-4.01,3.08,0,5.86,2.18,7.67,2.26.5.02,1.09-.39,1.37-1,0,0,1.57-4.28,1.69-4.63M305.26,172.05c.19-.38.62-1,.63-1.48.02-.59-.4-1.99-5.29-3.47-2.83-.86-6.17-1.59-9.06-1.59-12.15,0-20.93,6.35-20.93,18.11,0,8.62,6.03,11.98,10.73,14.71,4.72,2.74,6.89,4.69,6.86,7.95-.05,5.16-3.56,6.9-8.15,6.97-5.33.08-10.02-3.08-11.57-3.27-.81-.1-1.26.51-1.59,1.13-.98,1.84-1.66,3.18-2.99,5.72-.26.5-.64.97-.64,1.49,0,.92.97,1.43,1.9,2,2.9,1.46,8.92,3.04,13.47,3.06,11.8.05,21.75-6.72,21.79-19.2.01-5.12-2.18-8.3-4.85-10.43-6.93-5.52-13.34-6.76-13.12-11.69.27-6.25,5.98-6.4,7.84-6.43,4.97,0,8.84,3.04,10.4,3.28.81.12,1.45-.87,1.58-1.12,1.23-2.32,2.22-4.24,2.99-5.74M328.27,194.49c0,3.98-.69,9.03-2.38,13.12-1.7,4.09-4.22,6.81-7.64,6.83-1.86,0-3.22-.68-4.06-1.16,0,0,1.42-6.83,2.61-12.29,1.26-5.79,4.66-11.08,8.56-11.06,1.59,0,2.91,1.21,2.91,4.56M339.33,193c0-4.01-.75-7.11-2.34-9.29-1.59-2.18-4.06-3.28-7.02-3.27-5.89,0-9.53,3.25-11.73,5.69-.13-1.36-.21-2.38-.37-2.97-.28-.99-.46-2.71-1.89-2.73-.59,0-1.07.25-1.2.28l-6.3,2.44c-.25.11-1.4.35-1.47,1.64.02,1.19.56,2.95.63,4.72v.85c0,.83-.04,1.83-.3,2.99,0,0-5.73,26.97-8.9,41.91-.09.42-.29,1-.33,1.82-.01.19,0,.43.1.79.11.36.63.76,1.04.76.41,0,1.13-.2,1.46-.27,3.11-.62,4.79-.99,6.85-1.39,1.22-.24,1.77-.59,2.06-1.98.45-2.12,2.81-13.1,2.81-13.1,1.26.69,3.16,1.51,6.22,1.49,14.37-.14,20.67-17.7,20.69-30.39M359.33,181.77h-14.53c-.39,0-.84-.04-1.32.3-.48.35-.59.85-.68,1.32l-.86,4.37c-.06.28-.17,1.11-.17,1.11-.01.41.18.96.57,1.26.39.3.84.35,1.28.35h4.91l-6.12,28.92c-.1.41-.11.84-.1,1.03.04.69.23,1.03.64,1.32.41.29.83.29,1.21.3h7.27c.4-.02.84.05,1.31-.33.47-.39.52-.83.61-1.27,0,0,6.48-30.29,7.66-35.95.04-.21.11-.85.11-1.22,0-.46-.23-.9-.59-1.17-.36-.27-.8-.35-1.21-.35M365.16,171.03c0-4.29-3.71-7.25-7.32-7.25s-7.19,2.87-7.25,7.25c-.06,4.14,3.29,7.34,7.25,7.34s7.32-3.19,7.32-7.34M386.79,192.14c.03,3.05-2.3,4.74-5.06,5.49-2.35.63-5.03.83-6.85.86.92-3.33,3.26-9.32,9.16-9.33,1.87,0,2.74,1.34,2.76,2.99M397.84,191.59c0-6.68-4.83-11.16-12.41-11.16-12.93,0-22.89,11.85-22.95,27.57-.02,4.43,1.12,8.36,3.48,11.07,2.37,2.7,6.22,4.33,10.95,4.31,8.23-.04,13.94-3.42,15.18-4.32.86-.62,1.09-1.37.66-2.22-.8-1.6-1.27-3.17-2.02-5.01-.07-.16-.52-1.12-1.4-1.08-1.75.09-5.55,3.14-9.93,3.13-5.72-.09-5.76-3.56-5.9-6.3,0-.13,0-.26,0-.39,5.66-.04,24.11-.63,24.32-15.61M418.73,167.16c.13-.89.43-1.85.1-2.7-.37-.94-1.43-.61-2.37-.42,0,0-3.07.61-6.85,1.4-1.06.22-1.78.65-2.07,1.99-2.22,10.33-8.67,40.08-8.67,40.08-.64,2.79-.96,5.76-.96,8.47s.86,4.69,2.42,5.85c1.56,1.16,3.6,1.56,6,1.55,2.24,0,4.15-.43,5.3-.72,2.71-.7,3.33-1.49,3.43-2.38.04-.35-.06-.62-.08-.78-.32-2.44-.69-4.71-.79-5.52-.17-1.37-.56-1.33-1.37-1.27-.87.07-1.5.51-2.9.55-.88.02-.96-.22-.96-.72,0-1.03.3-1.87.92-4.75l8.83-40.63ZM587.32,106.95c0-42.75-25.74-90.18-43.54-90.18-2.64,0-3.39,4.21-3.81,6.05-5.23,22.69-14.69,47.87-40.55,54.19-4.93,1.2-12.02,2.43-16.44-.68-.35-.25-1.31-.96-1.85-1.72-1.18-1.67-1.05-2.54-.19-2.98,1.17,1.85,3.17,2.45,3.66,2.45,8.37-26.2,6.34-52.43-3.69-54.93-.91.88-1.01,1.05-2.13,1.48-2.42-1.02-1.63-1.53-.79-2.74,3.54-5.06-.02-11.53-.22-11.53.13,1.89-2.59,1.28-2.85,9.78-9.95-1.24-14.47,1.44-16.43,1.7-.78.1.66-2.63,3.57-3.45.06-1.51-2.79-5.52-2.75-7.18.04-1.62-4.69.51-3.2,11.59-1.61.77-3.99,2.72-7,6.52-1.02,1.29-4.13,3.4-4.13,5.49.19,2.14.96,2.56-1.25,6.27-2.23,3.74-6.08,7.77-8.39,10.11-3.18,1.59-3.25,3.93-2.84,5.79,1.47-.75,2.32-1.31,3.78-.63,1.06.49,2.37,3.24,1.03,6.08,2.12,1.9,6.01.58,8.02-4.31,2.1-4.74,25.69-5.49,26.54-16.04.54-6.68-10.58.07-12.32-2.17,0-7.56,2.1-7.26,7.9-6.76,2.2.19.55,1.03,2.09,2.2.94.72,4.94,0,4.46-1.64-.17-.58,2.19-.33,2.3.02,2.51,8.54,1.83,19.35-17.02,22.07,5.48,8.98-4.08,20.25-1.65,25.99-6.08.18-10.87,4.54-14.37,4.47,2.52-3.09,5.39-7.73,1.28-6.38-6.91,2.26-9.02,12.49-9.02,17.75,0,10.07,6.67,12.39,10.48,11.3,0-2.18.14-3.4,5.67-2.59-1.59,3.99-1.7,6.39-2.27,7.97-.69.29-4.28,1.51-6.22,1.66-10.73.81-15.1,1.83-18.74,1.89-2.2.73-3.85,2.2-5.06,5.38-.58,1.54.89,4,1.09,6.69.39,5.45-.11,11.34.68,14.09.58,2.02,1.36,5.55,4.47,5.7,5.64.27,5.53,2.76,10.79,1.11,2.09-.66-.19-4.43-1.7-7.06-.73-1.27-2.43-.77-3.45-.49-1.92,3.69-2.77,4.73-3.56,3.99-.4-.46,1.3-1.97,1.57-5.08.14-1.56-.84-2.02-1.17-4.35-.45-3.2-.23-7.68.8-9.9,9.8-3.42,16.32-.5,28.66-.39,11.45-3.68,13.32-8.7,14.93-7.55.73.52.21,4.84-12.32,10.56,1.47,9.27,13.8,14.35,53.5,17.43,3.33-3.29,4-3.69,3.79-5.17-.4-2.88-.34-4.04,1.45-2.24,2.36,2.39.4,5.22-1.37,7.63-6.32,8.61-9.67,14.75-10.62,20.33-.57,3.31-.02,5.99.99,8.84,2.14,6.05,6.5,16.89,6.47,28.14-1.16,6.82-6.15,14.94-11.22,20.51-.55.61-.96,1.44-1.73,1.77-3.27,1.42-5.2,4.34-6.53,9.81-.29,1.18,8.57.05,12.57-1.8,1.16-2.26,1.25-1.89-1.41-3.21-1.04-.52-.71-2.41-.12-2.41,0,.22,3.35,2.89,4.46,1.36,1.74-4.08,8.74-19.65,11.77-24.5,1.96-7.04-3.37-22.31-1.17-26.25,6.59-1.78,11.2-4.89,15.28-8.46,14.46-12.66,14.33-33.93,1.32-47-.96-.97-1.81-1.88-3.12-2.73-15.85-3.43-27.15-10.92-29.6-23.17-.87-4.36-.62-6.67.31-11.29-2.35,2.31-3.56,8.57-2.42,12.37-8.84,0-3.36-8.8-10.96-12.95-.75-.41-4.58-1.26-8.2-1.85-1.06-.17-1.38-.66-1.36-1.49.01-.56.58-.67,1.28-.37,1.39.6,22.11,6.26,41.57-13.21,12.67-12.67,16.12-30.12,18.9-41.1.88-3.49,2.38-5.08,8.36-.77,9.13,6.58,32.95,41.69,32.95,81.73,0,24.31-4.58,38.75-7.75,46.72-.77,1.94.4,2.08,1.19.27,4.65-10.66,8.56-24.51,8.56-46.57"/>
  </g>
</svg>